# xmcd
#
# Track frame offsets:
#	150
#	13318
#	27099
#	42469
#	55990
#	69622
#	85703
#	100290
#	116632
#	130388
#	143080
#	157087
#	171192
#
# Disc length: 2411 seconds
#
# Revision: 0
# Processed by: cddbd v1.5.2PL0 Copyright (c) Steve Scherf et al.
# Submitted via: EasyCDDAExtractor 10.2.0.1
#
DISCID=b709690d
DTITLE=Ilício e Lécio - No colo da noite
DYEAR=2007
DGENRE=Sertanejo
TTITLE0=Progresso de violeiro
TTITLE1=Desprezo
TTITLE2=No colo da noite
TTITLE3=Nossa felicidade
TTITLE4=Amargurada
TTITLE5=Mãe amorosa
TTITLE6=Boi tufão
TTITLE7=Bandeira branca
TTITLE8=Mágoa de cantador
TTITLE9=Berrante de Madalena
TTITLE10=Mineiro de Monti Belo
TTITLE11=Mulher e dinheiro
TTITLE12=A volta da Madalene
EXTD=
EXTT0=
EXTT1=
EXTT2=
EXTT3=
EXTT4=
EXTT5=
EXTT6=
EXTT7=
EXTT8=
EXTT9=
EXTT10=
EXTT11=
EXTT12=
PLAYORDER=
